<svg version="1.1" width="800" height="800" xmlns="http://www.w3.org/2000/svg"><defs><pattern id="grid" width="40" height="40" patternUnits="userSpaceOnUse"><path d="M 100 0 L 0 0 0 100" fill="none" stroke="gray" stroke-width="1"/></pattern></defs><rect fill="url(#grid)" height="800" width="800" y="0"></rect><line x1="0" y1="400" x2="800" y2="400" stroke="black" style="stroke-width:1" /><line x1="400" y1="0" x2="400" y2="800" stroke="black" style="stroke-width:1" /><line x1="400" y1="0" x2="390" y2="10" stroke="black" style="stroke-width:1" /><line x1="400" y1="0" x2="410" y2="10" stroke="black" style="stroke-width:1" /><line x1="800" y1="400" x2="790" y2="390" stroke="black" style="stroke-width:1" /><line x1="800" y1="400" x2="790" y2="410" stroke="black" style="stroke-width:1" /><text x="0" y="410" font-size="0.6em">-10</text><text x="40" y="410" font-size="0.6em">-9</text><text x="80" y="410" font-size="0.6em">-8</text><text x="120" y="410" font-size="0.6em">-7</text><text x="160" y="410" font-size="0.6em">-6</text><text x="200" y="410" font-size="0.6em">-5</text><text x="240" y="410" font-size="0.6em">-4</text><text x="280" y="410" font-size="0.6em">-3</text><text x="320" y="410" font-size="0.6em">-2</text><text x="360" y="410" font-size="0.6em">-1</text><text x="400" y="410" font-size="0.6em">0</text><text x="440" y="410" font-size="0.6em">1</text><text x="480" y="410" font-size="0.6em">2</text><text x="520" y="410" font-size="0.6em">3</text><text x="560" y="410" font-size="0.6em">4</text><text x="600" y="410" font-size="0.6em">5</text><text x="640" y="410" font-size="0.6em">6</text><text x="680" y="410" font-size="0.6em">7</text><text x="720" y="410" font-size="0.6em">8</text><text x="760" y="410" font-size="0.6em">9</text><text x="390" y="0" font-size="0.6em">10</text><text x="390" y="40" font-size="0.6em">9</text><text x="390" y="80" font-size="0.6em">8</text><text x="390" y="120" font-size="0.6em">7</text><text x="390" y="160" font-size="0.6em">6</text><text x="390" y="200" font-size="0.6em">5</text><text x="390" y="240" font-size="0.6em">4</text><text x="390" y="280" font-size="0.6em">3</text><text x="390" y="320" font-size="0.6em">2</text><text x="390" y="360" font-size="0.6em">1</text><text x="390" y="440" font-size="0.6em">-1</text><text x="390" y="480" font-size="0.6em">-2</text><text x="390" y="520" font-size="0.6em">-3</text><text x="390" y="560" font-size="0.6em">-4</text><text x="390" y="600" font-size="0.6em">-5</text><text x="390" y="640" font-size="0.6em">-6</text><text x="390" y="680" font-size="0.6em">-7</text><text x="390" y="720" font-size="0.6em">-8</text><text x="390" y="760" font-size="0.6em">-9</text><g transform="translate(400, 400) scale(1,-1)"><line x1="-16000" y1="-31880" x2="16000" y2="32120" stroke="black" style="stroke-width:1" /><path transform="translate(50, 305)" d="M-800,-27800 Q0,27800 800,-27800" fill="transparent" stroke="black" stroke-width="1" /></g></svg>
